<?xml version="1.0" encoding="UTF-8" standalone="no"?>
<!-- Generator: Adobe Illustrator 18.1.0, SVG Export Plug-In . SVG Version: 6.00 Build 0)  -->

<svg
   xmlns:dc="http://purl.org/dc/elements/1.1/"
   xmlns:cc="http://creativecommons.org/ns#"
   xmlns:rdf="http://www.w3.org/1999/02/22-rdf-syntax-ns#"
   xmlns:svg="http://www.w3.org/2000/svg"
   xmlns="http://www.w3.org/2000/svg"
   xmlns:sodipodi="http://sodipodi.sourceforge.net/DTD/sodipodi-0.dtd"
   xmlns:inkscape="http://www.inkscape.org/namespaces/inkscape"
   version="1.1"
   id="Cycle"
   x="0px"
   y="0px"
   viewBox="0 0 20 20"
   enable-background="new 0 0 20 20"
   xml:space="preserve"
   inkscape:version="0.91 r13725"
   sodipodi:docname="retweeted.svg"><metadata
     id="metadata9"><rdf:RDF><cc:Work
         rdf:about=""><dc:format>image/svg+xml</dc:format><dc:type
           rdf:resource="http://purl.org/dc/dcmitype/StillImage" /><dc:title></dc:title></cc:Work></rdf:RDF></metadata><defs
     id="defs7" /><sodipodi:namedview
     pagecolor="#ffffff"
     bordercolor="#666666"
     borderopacity="1"
     objecttolerance="10"
     gridtolerance="10"
     guidetolerance="10"
     inkscape:pageopacity="0"
     inkscape:pageshadow="2"
     inkscape:window-width="1280"
     inkscape:window-height="1002"
     id="namedview5"
     showgrid="false"
     inkscape:zoom="11.8"
     inkscape:cx="-2.5"
     inkscape:cy="10"
     inkscape:window-x="1358"
     inkscape:window-y="-8"
     inkscape:window-maximized="1"
     inkscape:current-layer="Cycle" /><path
     d="M5.516,14.224c-2.262-2.432-2.222-6.244,0.128-8.611c0.962-0.969,2.164-1.547,3.414-1.736L8.989,1.8  C7.234,2.013,5.537,2.796,4.192,4.151c-3.149,3.17-3.187,8.289-0.123,11.531l-1.741,1.752l5.51,0.301l-0.015-5.834L5.516,14.224z   M12.163,2.265l0.015,5.834l2.307-2.322c2.262,2.434,2.222,6.246-0.128,8.611c-0.961,0.969-2.164,1.547-3.414,1.736l0.069,2.076  c1.755-0.213,3.452-0.996,4.798-2.35c3.148-3.172,3.186-8.291,0.122-11.531l1.741-1.754L12.163,2.265z"
     id="path3"
     style="fill:#54d056;fill-opacity:1" /></svg>